<?xml version="1.0" encoding="UTF-8" standalone="no"?>
<svg
   xmlns:dc="http://purl.org/dc/elements/1.1/"
   xmlns:cc="http://creativecommons.org/ns#"
   xmlns:rdf="http://www.w3.org/1999/02/22-rdf-syntax-ns#"
   xmlns:svg="http://www.w3.org/2000/svg"
   xmlns="http://www.w3.org/2000/svg"
   xmlns:xlink="http://www.w3.org/1999/xlink"
   id="svg2408"
   height="96"
   width="96"
   version="1.0">
  <defs
     id="defs2410">
    <linearGradient
       id="linearGradient3892">
      <stop
         offset="0"
         style="stop-color:#000000;stop-opacity:0.47058824"
         id="stop3894" />
      <stop
         offset="0.11780351"
         style="stop-color:#000000;stop-opacity:0.39215687"
         id="stop3896" />
      <stop
         offset="0.23809524"
         style="stop-color:#000000;stop-opacity:0.29411766"
         id="stop3898" />
      <stop
         offset="1"
         style="stop-color:#000000;stop-opacity:0.15686275"
         id="stop3900" />
    </linearGradient>
    <linearGradient
       id="linearGradient3864">
      <stop
         offset="0"
         style="stop-color:#ffffff;stop-opacity:0.07843138"
         id="stop3866" />
      <stop
         offset="0.25"
         style="stop-color:#ffffff;stop-opacity:0.3137255"
         id="stop3872" />
      <stop
         offset="0.60000002"
         style="stop-color:#ffffff;stop-opacity:0"
         id="stop3874" />
      <stop
         offset="1"
         style="stop-color:#ffffff;stop-opacity:0"
         id="stop3868" />
    </linearGradient>
    <linearGradient
       id="linearGradient4384">
      <stop
         offset="0"
         style="stop-color:#ffffff;stop-opacity:1"
         id="stop4386" />
      <stop
         offset="1"
         style="stop-color:#ffffff;stop-opacity:0"
         id="stop4388" />
    </linearGradient>
    <linearGradient
       id="linearGradient4367">
      <stop
         offset="0"
         style="stop-color:#ffffff;stop-opacity:0.71755725"
         id="stop4369" />
      <stop
         offset="1"
         style="stop-color:#ffffff;stop-opacity:1"
         id="stop4371" />
    </linearGradient>
    <linearGradient
       gradientTransform="scale(1.0058652,0.994169)"
       gradientUnits="userSpaceOnUse"
       id="ButtonShadow"
       y2="7.0165396"
       x2="45.447727"
       y1="92.539597"
       x1="45.447727">
      <stop
         offset="0"
         style="stop-color:#000000;stop-opacity:1"
         id="stop3750" />
      <stop
         offset="1"
         style="stop-color:#000000;stop-opacity:0.58823532"
         id="stop3752" />
    </linearGradient>
    <linearGradient
       id="linearGradient3737">
      <stop
         offset="0"
         style="stop-color:#ffffff;stop-opacity:1"
         id="stop3739" />
      <stop
         offset="1"
         style="stop-color:#ffffff;stop-opacity:0"
         id="stop3741" />
    </linearGradient>
    <filter
       id="filter3174"
       color-interpolation-filters="sRGB">
      <feGaussianBlur
         stdDeviation="1.71"
         id="feGaussianBlur3176" />
    </filter>
    <filter
       id="filter3794"
       color-interpolation-filters="sRGB"
       height="1.3839999"
       width="1.3839999"
       y="-0.192"
       x="-0.192">
      <feGaussianBlur
         stdDeviation="5.28"
         id="feGaussianBlur3796" />
    </filter>
    <linearGradient
       gradientUnits="userSpaceOnUse"
       xlink:href="#linearGradient3737"
       id="linearGradient3613"
       y2="138.66119"
       x2="48"
       y1="20.220806"
       x1="48" />
    <linearGradient
       gradientTransform="matrix(1.0058652,0,0,0.994169,100,0)"
       gradientUnits="userSpaceOnUse"
       id="ButtonShadow-0"
       y2="7.0165396"
       x2="45.447727"
       y1="92.539597"
       x1="45.447727">
      <stop
         offset="0"
         style="stop-color:#000000;stop-opacity:1"
         id="stop3750-8" />
      <stop
         offset="1"
         style="stop-color:#000000;stop-opacity:0.58823532"
         id="stop3752-5" />
    </linearGradient>
    <linearGradient
       gradientTransform="matrix(1.0238095,0,0,1.0119048,-1.1428571,-98.071429)"
       gradientUnits="userSpaceOnUse"
       xlink:href="#ButtonShadow-0"
       id="linearGradient3780"
       y2="90.238609"
       x2="32.251034"
       y1="6.1317081"
       x1="32.251034" />
    <linearGradient
       gradientTransform="matrix(1.0238095,0,0,1.0119048,-1.1428571,-98.071429)"
       gradientUnits="userSpaceOnUse"
       xlink:href="#ButtonShadow-0"
       id="linearGradient3772"
       y2="90.238609"
       x2="32.251034"
       y1="6.1317081"
       x1="32.251034" />
    <linearGradient
       gradientTransform="matrix(1.0238095,0,0,1.0119048,-1.1428571,-98.071429)"
       gradientUnits="userSpaceOnUse"
       xlink:href="#ButtonShadow-0"
       id="linearGradient3725"
       y2="90.238609"
       x2="32.251034"
       y1="6.1317081"
       x1="32.251034" />
    <linearGradient
       gradientTransform="translate(0,-97)"
       gradientUnits="userSpaceOnUse"
       xlink:href="#ButtonShadow-0"
       id="linearGradient3721"
       y2="90.238609"
       x2="32.251034"
       y1="6.1317081"
       x1="32.251034" />
    <linearGradient
       gradientTransform="matrix(1.0238095,0,0,1.0119048,-1.1428571,-98.071429)"
       gradientUnits="userSpaceOnUse"
       xlink:href="#ButtonShadow-0"
       id="linearGradient3026"
       y2="90.238609"
       x2="32.251034"
       y1="6.1317081"
       x1="32.251034" />
    <clipPath
       id="clipPath4355">
      <rect
         style="fill:#ffffff;fill-opacity:1;fill-rule:nonzero;stroke:none"
         id="rect4357"
         y="6"
         x="6"
         ry="6"
         rx="6"
         height="80"
         width="84" />
    </clipPath>
    <radialGradient
       gradientTransform="matrix(1,-6.7114942e-8,8.4282233e-8,1.2557894,109.99999,-24.505592)"
       gradientUnits="userSpaceOnUse"
       xlink:href="#linearGradient4367"
       id="radialGradient4375"
       fy="87.792389"
       fx="48"
       r="42"
       cy="87.792389"
       cx="48" />
    <linearGradient
       gradientTransform="matrix(1,0,0,-1,0,92)"
       gradientUnits="userSpaceOnUse"
       xlink:href="#linearGradient4384"
       id="linearGradient4390"
       y2="-40"
       x2="48"
       y1="88"
       x1="48" />
    <linearGradient
       spreadMethod="reflect"
       gradientUnits="userSpaceOnUse"
       xlink:href="#linearGradient4384"
       id="linearGradient4429"
       y2="82.454597"
       x2="112.12357"
       y1="82"
       x1="48" />
    <linearGradient
       id="linearGradient4482">
      <stop
         offset="0"
         style="stop-color:#ffffff;stop-opacity:0.12977099"
         id="stop4484" />
      <stop
         offset="0.11780351"
         style="stop-color:#424242;stop-opacity:0.28244275"
         id="stop4486" />
      <stop
         offset="0.23809524"
         style="stop-color:#2f2f2f;stop-opacity:0.30534351"
         id="stop4488" />
      <stop
         offset="1"
         style="stop-color:#000000;stop-opacity:0.35114503"
         id="stop4490" />
    </linearGradient>
    <linearGradient
       spreadMethod="reflect"
       gradientTransform="translate(0,40)"
       gradientUnits="userSpaceOnUse"
       xlink:href="#linearGradient4482"
       id="linearGradient3855"
       y2="88"
       x2="48"
       y1="88"
       x1="90" />
    <linearGradient
       gradientTransform="matrix(-1,0,0,1,96,-30)"
       gradientUnits="userSpaceOnUse"
       xlink:href="#linearGradient3864"
       id="linearGradient3884"
       y2="115"
       x2="24"
       y1="115"
       x1="6" />
    <linearGradient
       gradientTransform="translate(0,-30)"
       gradientUnits="userSpaceOnUse"
       xlink:href="#linearGradient3864"
       id="linearGradient3886"
       y2="115"
       x2="24"
       y1="115"
       x1="6" />
    <linearGradient
       spreadMethod="reflect"
       gradientUnits="userSpaceOnUse"
       xlink:href="#linearGradient3892"
       id="linearGradient3890"
       y2="88"
       x2="48"
       y1="88"
       x1="90" />
    <linearGradient
       id="linearGradient3700-6">
      <stop
         offset="0"
         style="stop-color:#f7d687;stop-opacity:1"
         id="stop3702-1" />
      <stop
         offset="1"
         style="stop-color:#fbe9bf;stop-opacity:1"
         id="stop3704-1" />
    </linearGradient>
    <linearGradient
       gradientUnits="userSpaceOnUse"
       xlink:href="#linearGradient3700-6"
       id="linearGradient3152"
       y2="5.9877172"
       x2="48"
       y1="90"
       x1="48" />
    <linearGradient
       gradientTransform="matrix(0.927536,0,0,0.8855463,-22.753604,0.6637971)"
       gradientUnits="userSpaceOnUse"
       xlink:href="#linearGradient3740"
       id="linearGradient3780-5"
       y2="44.971905"
       x2="99.194839"
       y1="18.93565"
       x1="99.194839" />
    <linearGradient
       id="linearGradient3740">
      <stop
         offset="0"
         style="stop-color:#536d98;stop-opacity:1"
         id="stop3742" />
      <stop
         offset="1"
         style="stop-color:#7990b6;stop-opacity:1"
         id="stop3744" />
    </linearGradient>
    <linearGradient
       gradientTransform="translate(-1.0000001,-1)"
       gradientUnits="userSpaceOnUse"
       xlink:href="#ButtonShadow-2"
       id="linearGradient3798"
       y2="16.412582"
       x2="73.214287"
       y1="44.5"
       x1="73.214287" />
    <linearGradient
       gradientTransform="scale(1.0058652,0.994169)"
       gradientUnits="userSpaceOnUse"
       id="ButtonShadow-2"
       y2="7.0165396"
       x2="45.447727"
       y1="92.539597"
       x1="45.447727">
      <stop
         offset="0"
         style="stop-color:#000000;stop-opacity:1"
         id="stop3750-9" />
      <stop
         offset="1"
         style="stop-color:#000000;stop-opacity:0.58823532"
         id="stop3752-7" />
    </linearGradient>
    <filter
       id="filter3808"
       color-interpolation-filters="sRGB">
      <feGaussianBlur
         stdDeviation="0.375"
         id="feGaussianBlur3810" />
    </filter>
    <linearGradient
       id="linearGradient3866">
      <stop
         offset="0"
         style="stop-color:#828282;stop-opacity:1"
         id="stop3868-3" />
      <stop
         offset="0.5"
         style="stop-color:#8f8f8f;stop-opacity:0.63478261"
         id="stop3872-6" />
      <stop
         offset="1"
         style="stop-color:#9d9d9d;stop-opacity:0"
         id="stop3870" />
    </linearGradient>
    <linearGradient
       id="linearGradient3495">
      <stop
         offset="0"
         style="stop-color:#000000;stop-opacity:1"
         id="stop3497" />
      <stop
         offset="0.5"
         style="stop-color:#000000;stop-opacity:0.49803922"
         id="stop3874-7" />
      <stop
         offset="1"
         style="stop-color:#000000;stop-opacity:0"
         id="stop3499" />
    </linearGradient>
    <linearGradient
       y2="15.737678"
       x2="25.525208"
       y1="30.188753"
       x1="25.525208"
       spreadMethod="reflect"
       gradientTransform="matrix(2.6304581,0,0,2.6386914,0.559827,-80.734876)"
       gradientUnits="userSpaceOnUse"
       id="linearGradient4089"
       xlink:href="#linearGradient3866" />
    <linearGradient
       y2="15.737678"
       x2="25.525208"
       y1="30.188753"
       x1="25.525208"
       spreadMethod="reflect"
       gradientTransform="matrix(2.6304581,0,0,2.6386914,0.559827,-79.428849)"
       gradientUnits="userSpaceOnUse"
       id="linearGradient4086"
       xlink:href="#linearGradient4384" />
    <linearGradient
       y2="20.443331"
       x2="23.903786"
       y1="35.75"
       x1="23.903786"
       gradientTransform="matrix(2.6252264,0,0,2.8160321,0.622197,-84.347399)"
       gradientUnits="userSpaceOnUse"
       id="linearGradient4083"
       xlink:href="#linearGradient3495" />
    <linearGradient
       y2="15.737678"
       x2="25.525208"
       y1="30.188753"
       x1="25.525208"
       spreadMethod="reflect"
       gradientTransform="matrix(2.6304581,0,0,2.6386914,0.559827,-82.070106)"
       gradientUnits="userSpaceOnUse"
       id="linearGradient4080"
       xlink:href="#linearGradient4384" />
    <linearGradient
       xlink:href="#linearGradient3495"
       id="linearGradient4124"
       gradientUnits="userSpaceOnUse"
       gradientTransform="matrix(2.6252264,0,0,2.8160321,0.622197,-83.032761)"
       x1="23.903786"
       y1="35.75"
       x2="23.903786"
       y2="20.443331" />
  </defs>
  <metadata
     id="metadata2413">
    <rdf:RDF>
      <cc:Work
         rdf:about="">
        <dc:format>image/svg+xml</dc:format>
        <dc:type
           rdf:resource="http://purl.org/dc/dcmitype/StillImage" />
        <dc:title></dc:title>
      </cc:Work>
    </rdf:RDF>
  </metadata>
  <g
     style="display:none"
     id="layer2">
    <rect
       style="opacity:0.9;fill:url(#ButtonShadow);fill-opacity:1;fill-rule:nonzero;stroke:none;filter:url(#filter3174)"
       id="rect3745"
       y="7"
       x="5"
       ry="6"
       rx="6"
       height="85"
       width="86" />
  </g>
  <g
     style="display:inline"
     id="layer3">
    <path
       style="opacity:0.07999998;fill:url(#linearGradient3026);fill-opacity:1;fill-rule:nonzero;stroke:none;display:inline"
       id="path3786"
       transform="scale(1,-1)"
       d="m 12,-95.03125 c -5.5110903,0 -10.03125,4.52016 -10.03125,10.03125 l 0,71 c 0,5.5110902 4.5201598,10.03125 10.03125,10.03125 l 72,0 c 5.51109,0 10.03125,-4.5201597 10.03125,-10.03125 l 0,-71 c 0,-5.51109 -4.52016,-10.03125 -10.03125,-10.03125 l -72,0 z" />
    <path
       style="opacity:0.1;fill:url(#linearGradient3780);fill-opacity:1;fill-rule:nonzero;stroke:none;display:inline"
       id="path3778"
       transform="scale(1,-1)"
       d="m 12,-94.03125 c -4.971633,0 -9.03125,4.059617 -9.03125,9.03125 l 0,71 c 0,4.9716329 4.0596171,9.03125 9.03125,9.03125 l 72,0 c 4.971633,0 9.03125,-4.059617 9.03125,-9.03125 l 0,-71 c 0,-4.971633 -4.059617,-9.03125 -9.03125,-9.03125 l -72,0 z" />
    <path
       style="opacity:0.2;fill:url(#linearGradient3772);fill-opacity:1;fill-rule:nonzero;stroke:none;display:inline"
       id="path3770"
       transform="scale(1,-1)"
       d="m 12,-93 c -4.4091333,0 -8,3.590867 -8,8 l 0,71 c 0,4.4091333 3.5908667,8 8,8 l 72,0 c 4.409133,0 8,-3.5908667 8,-8 l 0,-71 c 0,-4.409133 -3.590867,-8 -8,-8 l -72,0 z" />
    <rect
       style="opacity:0.3;fill:url(#linearGradient3725);fill-opacity:1;fill-rule:nonzero;stroke:none;display:inline"
       id="rect3723"
       transform="scale(1,-1)"
       y="-92"
       x="5"
       ry="7"
       rx="7"
       height="85"
       width="86" />
    <rect
       style="opacity:0.45;fill:url(#linearGradient3721);fill-opacity:1;fill-rule:nonzero;stroke:none;display:inline"
       id="rect3716"
       transform="scale(1,-1)"
       y="-91"
       x="6"
       ry="6"
       rx="6"
       height="84"
       width="84" />
  </g>
  <g
     id="layer1">
    <rect
       style="fill:url(#linearGradient3152);fill-opacity:1;fill-rule:nonzero;stroke:none"
       id="rect2419"
       y="6"
       x="6"
       ry="6"
       rx="6"
       height="84"
       width="84" />
    <g
       id="g4158"
       transform="matrix(0,1,1,0,1.56078,76)">
      <path
         style="fill:#ca1e18;fill-opacity:1;fill-rule:nonzero;stroke:none"
         id="path4160"
         d="m 6.0000004,17.358183 0,9.918962 4.0000006,-2.479741 0,-9.918962 -4.0000006,2.479741 z" />
      <path
         style="fill:#2c72c7;fill-opacity:1;fill-rule:nonzero;stroke:none"
         id="path4162"
         d="m 6.0000004,34.236626 0,9.918963 4.0000006,-2.479741 0,-9.918963 -4.0000006,2.479741 z" />
      <path
         style="fill:#ca1e18;fill-opacity:1;fill-rule:nonzero;stroke:none"
         id="path4164"
         d="m 6.0000004,51.11507 0,9.918962 4.0000006,-2.47974 0,-9.918963 -4.0000006,2.479741 z" />
      <path
         style="fill:#2c72c7;fill-opacity:1;fill-rule:nonzero;stroke:none"
         id="path4166"
         d="m 6.0000004,68.081038 0,9.918962 4.0000006,-2.479737 0,-9.918966 -4.0000006,2.479741 z" />
    </g>
    <g
       id="g4148"
       transform="matrix(0,-1,-1,0,94.439222,16.000001)">
      <path
         style="fill:#ca1e18;fill-opacity:1;fill-rule:nonzero;stroke:none"
         id="path4150"
         d="m 6.0000004,17.358183 0,9.918962 4.0000006,-2.479741 0,-9.918962 -4.0000006,2.479741 z" />
      <path
         style="fill:#2c72c7;fill-opacity:1;fill-rule:nonzero;stroke:none"
         id="path4152"
         d="m 6.0000004,34.236626 0,9.918963 4.0000006,-2.479741 0,-9.918963 -4.0000006,2.479741 z" />
      <path
         style="fill:#ca1e18;fill-opacity:1;fill-rule:nonzero;stroke:none"
         id="path4154"
         d="m 6.0000004,51.11507 0,9.918962 4.0000006,-2.47974 0,-9.918963 -4.0000006,2.479741 z" />
      <path
         style="fill:#2c72c7;fill-opacity:1;fill-rule:nonzero;stroke:none"
         id="path4156"
         d="m 6.0000004,68.081038 0,9.918962 4.0000006,-2.479737 0,-9.918966 -4.0000006,2.479741 z" />
    </g>
    <g
       id="g4118"
       transform="matrix(-1,0,0,-1,96.000001,92.878442)">
      <path
         style="fill:#ca1e18;fill-opacity:1;fill-rule:nonzero;stroke:none"
         id="path4120"
         d="m 6.0000004,17.358183 0,9.918962 4.0000006,-2.479741 0,-9.918962 -4.0000006,2.479741 z" />
      <path
         style="fill:#2c72c7;fill-opacity:1;fill-rule:nonzero;stroke:none"
         id="path4122"
         d="m 6.0000004,34.236626 0,9.918963 4.0000006,-2.479741 0,-9.918963 -4.0000006,2.479741 z" />
      <path
         style="fill:#ca1e18;fill-opacity:1;fill-rule:nonzero;stroke:none"
         id="path4124"
         d="m 6.0000004,51.11507 0,9.918962 4.0000006,-2.47974 0,-9.918963 -4.0000006,2.479741 z" />
      <path
         style="fill:#2c72c7;fill-opacity:1;fill-rule:nonzero;stroke:none"
         id="path4126"
         d="m 6.0000004,68.081038 0,9.918962 4.0000006,-2.479737 0,-9.918966 -4.0000006,2.479741 z" />
    </g>
    <g
       id="g4112">
      <path
         style="fill:#ca1e18;fill-opacity:1;fill-rule:nonzero;stroke:none"
         id="path3470"
         d="m 6.0000004,17.358183 0,9.918962 4.0000006,-2.479741 0,-9.918962 -4.0000006,2.479741 z" />
      <path
         style="fill:#2c72c7;fill-opacity:1;fill-rule:nonzero;stroke:none"
         id="path3472"
         d="m 6.0000004,34.236626 0,9.918963 4.0000006,-2.479741 0,-9.918963 -4.0000006,2.479741 z" />
      <path
         style="fill:#ca1e18;fill-opacity:1;fill-rule:nonzero;stroke:none"
         id="path3474"
         d="m 6.0000004,51.11507 0,9.918962 4.0000006,-2.47974 0,-9.918963 -4.0000006,2.479741 z" />
      <path
         style="fill:#2c72c7;fill-opacity:1;fill-rule:nonzero;stroke:none"
         id="path3476"
         d="m 6.0000004,68.081038 0,9.918962 4.0000006,-2.479737 0,-9.918966 -4.0000006,2.479741 z" />
    </g>
    <path
       style="opacity:0.2;fill:url(#radialGradient4375);fill-opacity:1;fill-rule:nonzero;stroke:none"
       id="rect4359"
       d="M 120.78125,6.125 C 118.04223,6.6826484 116,9.0915 116,12 l 0,68 c 0,3.324 2.676,6 6,6 l 72,0 c 3.324,0 6,-2.676 6,-6 l 0,-68 c 0,-2.9085 -2.04223,-5.3173516 -4.78125,-5.875 2.20512,0.5362071 3.8125,2.4908437 3.8125,4.875 l 0,68 c 0,2.80489 -2.22636,5.03125 -5.03125,5.03125 l -72,0 c -2.80489,0 -5.03125,-2.22636 -5.03125,-5.03125 l 0,-68 c 0,-2.3841563 1.60738,-4.3387929 3.8125,-4.875 z" />
    <path
       style="opacity:0.45;fill:url(#linearGradient4390);fill-opacity:1;fill-rule:nonzero;stroke:none"
       id="rect4377"
       d="M 12,86 C 8.676,86 6,83.324 6,80 L 6,12 C 6,8.676 8.676,6 12,6 l 72,0 c 3.324,0 6,2.676 6,6 l 0,68 c 0,3.324 -2.676,6 -6,6 z m 0,-0.96875 72,0 c 2.80489,0 5.03125,-2.22636 5.03125,-5.03125 l 0,-68 C 89.03125,9.19511 86.80489,6.96875 84,6.96875 l -72,0 C 9.19511,6.96875 6.96875,9.19511 6.96875,12 l 0,68 c 0,2.80489 2.22636,5.03125 5.03125,5.03125 z" />
    <path
       style="opacity:0.15;fill:#000000;fill-opacity:1;fill-rule:nonzero;stroke:none"
       id="path4412"
       d="m 6,100 0,1 c 0,3.324 2.676,6 6,6 l 72,0 c 3.324,0 6,-2.676 6,-6 l 0,-1 c 0,3.324 -2.676,6 -6,6 l -72,0 c -3.324,0 -6,-2.676 -6,-6 z" />
    <path
       style="opacity:0.2;fill:url(#linearGradient4429);fill-opacity:1;fill-rule:nonzero;stroke:none"
       id="rect4414"
       d="m 6,78 0,2 c 0,3.324 2.676,6 6,6 l 72,0 c 3.324,0 6,-2.676 6,-6 l 0,-2 c 0,3.324 -2.676,6 -6,6 L 12,84 C 8.676,84 6,81.324 6,78 z" />
  </g>
  <g
     style="display:inline"
     id="layer4">
    <path
       style="opacity:0.5;fill:#edac1c;fill-opacity:1;fill-rule:nonzero;stroke:none"
       id="path3454"
       d="m 6,80 0,4 c 0,3.324 2.676,6 6,6 l 72,0 c 3.324,0 6,-2.676 6,-6 l 0,-4 c 0,3.324 -2.676,6 -6,6 L 12,86 C 8.676,86 6,83.324 6,80 z" />
    <g
       style="opacity:0.8"
       id="g4187">
      <path
         style="fill:#ca1e18;fill-opacity:1;fill-rule:nonzero;stroke:none"
         id="path4170"
         d="m 18.918963,90.000001 9.918962,0 L 26.358184,86 l -9.918962,0 2.479741,4.000001 z" />
      <path
         style="fill:#2c72c7;fill-opacity:1;fill-rule:nonzero;stroke:none"
         id="path4172"
         d="m 35.797406,90.000001 9.918963,0 L 43.236628,86 l -9.918963,0 2.479741,4.000001 z" />
      <path
         style="fill:#ca1e18;fill-opacity:1;fill-rule:nonzero;stroke:none"
         id="path4174"
         d="m 52.67585,90.000001 9.918962,0 L 60.115072,86 l -9.918963,0 2.479741,4.000001 z" />
      <path
         style="fill:#2c72c7;fill-opacity:1;fill-rule:nonzero;stroke:none"
         id="path4176"
         d="m 69.641818,90.000001 9.918962,0 L 77.081043,86 l -9.918966,0 2.479741,4.000001 z" />
    </g>
    <path
       style="fill:url(#linearGradient3890);fill-opacity:1;fill-rule:nonzero;stroke:none"
       id="path3888"
       d="m 6,80 0,4 c 0,3.324 2.676,6 6,6 l 72,0 c 3.324,0 6,-2.676 6,-6 l 0,-4 c 0,3.324 -2.676,6 -6,6 L 12,86 C 8.676,86 6,83.324 6,80 z" />
    <g
       id="g3880"
       transform="translate(0,20)">
      <path
         style="fill:url(#linearGradient3884);fill-opacity:1;fill-rule:nonzero;stroke:none"
         id="path3876"
         d="m 90,80 0,4 c 0,3.324 -2.676,6 -6,6 l -12,0 0,-4 12,0 c 3.324,0 6,-2.676 6,-6 z" />
      <path
         style="fill:url(#linearGradient3886);fill-opacity:1;fill-rule:nonzero;stroke:none"
         id="path3857"
         d="m 6,80 0,4 c 0,3.324 2.676,6 6,6 l 12,0 0,-4 -12,0 C 8.676,86 6,83.324 6,80 z" />
    </g>
    <path
       style="opacity:0.1;color:#000000;fill:#000000;fill-opacity:1;fill-rule:nonzero;stroke:none;stroke-width:1.5;marker:none;visibility:visible;display:inline;overflow:visible;enable-background:accumulate"
       id="rect4345"
       d="m 6,82 0,2 c 0,3.324 2.676,6 6,6 l 72,0 c 3.324,0 6,-2.676 6,-6 l 0,-2 c 0,3.324 -2.676,6 -6,6 L 12,88 C 8.676,88 6,85.324 6,82 z" />
    <path
       style="opacity:0.15;color:#000000;fill:#000000;fill-opacity:1;fill-rule:nonzero;stroke:none;stroke-width:1.5;marker:none;visibility:visible;display:inline;overflow:visible;enable-background:accumulate"
       id="rect4336"
       d="m 6,83 0,1 c 0,3.324 2.676,6 6,6 l 72,0 c 3.324,0 6,-2.676 6,-6 l 0,-1 c 0,3.324 -2.676,6 -6,6 L 12,89 C 8.676,89 6,86.324 6,83 z" />
    <path
       style="fill:url(#linearGradient3855);fill-opacity:1;fill-rule:nonzero;stroke:none"
       id="path3853"
       d="m 6,120 0,4 c 0,3.324 2.676,6 6,6 l 72,0 c 3.324,0 6,-2.676 6,-6 l 0,-4 c 0,3.324 -2.676,6 -6,6 l -72,0 c -3.324,0 -6,-2.676 -6,-6 z" />
  </g>
  <g
     style="display:inline"
     id="layer5">
    <rect
       style="opacity:0.1;fill:url(#linearGradient3613);fill-opacity:1;fill-rule:nonzero;stroke:#ffffff;stroke-width:0.5;stroke-linecap:round;stroke-linejoin:miter;stroke-miterlimit:4;stroke-opacity:1;stroke-dasharray:none;stroke-dashoffset:0;filter:url(#filter3794)"
       id="rect3171"
       clip-path="url(#clipPath4355)"
       y="15"
       x="15"
       ry="12"
       rx="12"
       height="62"
       width="66" />
  </g>
  <g
     id="g4264"
     transform="matrix(0.68330796,0,0,0.66114272,4.1980766,48.734794)">
    <path
       d="M 9.073837,-37.557962 63.690835,11.619324 119.13321,-37.888653 M 49.634308,-0.254788 14.187407,35.717064 49.634308,-0.254788 Z M 77.829543,-0.08986 113.52306,35.055688 77.829543,-0.08986 Z"
       id="path3341-2"
       style="display:inline;overflow:visible;visibility:visible;fill:none;stroke:url(#linearGradient4089);stroke-width:1;stroke-linecap:butt;stroke-linejoin:miter;stroke-miterlimit:4;stroke-dasharray:none;stroke-dashoffset:0;stroke-opacity:1;marker:none;enable-background:accumulate" />
    <path
       d="M 9.073837,-36.251936 63.690835,12.925352 119.13321,-36.582627 M 49.634308,1.05124 14.187407,37.02309 49.634308,1.05124 Z M 77.829543,1.216148 113.52306,36.361697 77.829543,1.216148 Z"
       id="path3341-2-6"
       style="display:inline;overflow:visible;visibility:visible;opacity:0.7;fill:none;stroke:url(#linearGradient4086);stroke-width:1;stroke-linecap:butt;stroke-linejoin:miter;stroke-miterlimit:4;stroke-dasharray:none;stroke-dashoffset:0;stroke-opacity:1;marker:none;enable-background:accumulate" />
    <path
       d="M 22.503807,-24.050723 63.627638,12.890958 104.24631,-24.050723"
       id="path3493"
       style="opacity:0.2;fill:none;stroke:url(#linearGradient4083);stroke-width:1;stroke-linecap:butt;stroke-linejoin:miter;stroke-miterlimit:4;stroke-dasharray:none;stroke-opacity:1" />
    <path
       d="M 9.073837,-38.893194 63.690835,10.284094 119.13321,-39.223885"
       id="path3926"
       style="display:inline;overflow:visible;visibility:visible;opacity:0.7;fill:none;stroke:url(#linearGradient4080);stroke-width:1;stroke-linecap:butt;stroke-linejoin:miter;stroke-miterlimit:4;stroke-dasharray:none;stroke-dashoffset:0;stroke-opacity:1;marker:none;enable-background:accumulate" />
    <path
       d="M 22.503807,-22.736081 63.627638,14.2056 104.24631,-22.736081"
       id="path3493-7"
       style="opacity:0.05;fill:none;stroke:url(#linearGradient4124);stroke-width:1;stroke-linecap:butt;stroke-linejoin:miter;stroke-miterlimit:4;stroke-dasharray:none;stroke-opacity:1" />
  </g>
</svg>
